<svg class="icon" xmlns="http://www.w3.org/2000/svg" viewBox="0 0 28 28" enable-background="new 0 0 28 28" xml:space="preserve">
  <path fill="#D1CECC" d="M14,0C6.27,0,0,6.27,0,14s6.27,14,14,14s14-6.27,14-14S21.73,0,14,0z M18.514,8.878l-2.977,2.977v1.317
    l2.977,2.977H9.486l2.977-2.977v-1.317l-2.977-2.977H18.514z M20.99,17.06c0,0.43-0.35,0.77-0.77,0.77h-3.56v-5.42h1.82l0.27-2.11
    h-2.09v-1.35c0-0.61,0.17-1.03,1.05-1.03l1.12,0V9.2c-0.19-0.03-0.86-0.08-1.63-0.08c-1.61,0-2.71,0.98-2.71,2.79v1.56h-1.82v2.11
    h1.82v5.42h-6.7c-0.43,0-0.77-0.35-0.77-0.77V7.78c0-0.43,0.35-0.77,0.77-0.77h12.44c0.43,0,0.77,0.35,0.77,0.77V17.06z"/>
</svg>
