<svg class="icon" xmlns="http://www.w3.org/2000/svg" xmlns:xlink="http://www.w3.org/1999/xlink" x="0px" y="0px"
	 viewBox="0 0 28 28" enable-background="new 0 0 28 28" xml:space="preserve">
<path id="Email" fill="#D1CECC" d="M20.4 4H3.6C2.7 4 2 4.7 2 5.6v12.8c0 .9.7 1.6 1.6 1.6h16.8c.9 
                                    0 1.6-.7 1.6-1.6V5.6c0-.9-.7-1.6-1.6-1.6zM19 6.7l-7.2 
                                    5.1c-.5.4-1.1.6-1.7.6s-1.2-.2-1.7-.6L5 
                                    6.7h14zm-8.3 6.4l-4.4 3.1c-.2.1-.4.1-.6 0l-4.4-3.1V7.9h9.4v5.2z"/>
</svg>
